<?xml version="1.0" encoding="utf-8"?>
<!-- Generator: Adobe Illustrator 21.0.0, SVG Export Plug-In . SVG Version: 6.00 Build 0)  -->
<svg version="1.1" id="Capa_1" xmlns="http://www.w3.org/2000/svg" xmlns:xlink="http://www.w3.org/1999/xlink" x="0px" y="0px"
	 viewBox="0 0 478.2 478.2" style="enable-background:new 0 0 478.2 478.2;" xml:space="preserve">
<style type="text/css">
	.st0{fill:#C11E1E;}
</style>
<g>
	<path class="st0" d="M239.1,472.2c-62.3,0-120.8-24.2-164.8-68.3C30.2,359.9,6,301.4,6,239.1c0-62.3,24.2-120.8,68.3-164.8
		C118.3,30.2,176.8,6,239.1,6c62.3,0,120.8,24.2,164.8,68.3c44,44,68.3,102.6,68.3,164.8c0,62.3-24.2,120.8-68.3,164.8
		C359.9,448,301.4,472.2,239.1,472.2z"/>
	<path d="M239.1,12c30.7,0,60.4,6,88.4,17.8c27,11.4,51.3,27.8,72.2,48.7c20.9,20.9,37.2,45.1,48.7,72.2
		c11.8,28,17.8,57.7,17.8,88.4c0,30.7-6,60.4-17.8,88.4c-11.4,27-27.8,51.3-48.7,72.2c-20.9,20.9-45.1,37.2-72.2,48.7
		c-28,11.8-57.7,17.8-88.4,17.8c-30.7,0-60.4-6-88.4-17.8c-27-11.4-51.3-27.8-72.2-48.7c-20.9-20.9-37.2-45.1-48.7-72.2
		C18,299.5,12,269.8,12,239.1c0-30.7,6-60.4,17.8-88.4c11.4-27,27.8-51.3,48.7-72.2c20.9-20.9,45.1-37.2,72.2-48.7
		C178.7,18,208.4,12,239.1,12 M239.1,0C107,0,0,107,0,239.1c0,132.1,107,239.1,239.1,239.1c132.1,0,239.1-107,239.1-239.1
		C478.2,107,371.2,0,239.1,0L239.1,0z"/>
</g>
<g>
	<g>
		<g>
			<g>
				<path d="M306.3,252.4c0,19.2,11,34.9,24.6,34.9c13.6,0,24.5-15.6,24.5-34.9c0-19.3-11-34.9-24.5-34.9
					C317.3,217.6,306.3,233.2,306.3,252.4z"/>
			</g>
		</g>
	</g>
	<g>
		<g>
			<g>
				<path d="M122.8,252.4c0,19.2,11,34.9,24.6,34.9c13.6,0,24.6-15.6,24.6-34.9c0-19.3-11-34.9-24.6-34.9
					C133.8,217.6,122.8,233.2,122.8,252.4z"/>
			</g>
		</g>
	</g>
</g>
<g>
	<g>
		<g>
			<path d="M291.9,229.5c2.9,0,5.6-1.9,6.5-4.8c7.2-24.5,31.8-43.2,61-46.5c3.7-0.4,6.4-3.7,5.9-7.5c-0.4-3.7-3.7-6.4-7.5-5.9
				c-34.6,3.9-63.7,26.5-72.5,56.1c-1,3.6,1,7.3,4.6,8.4C290.6,229.4,291.2,229.5,291.9,229.5z"/>
		</g>
	</g>
	<g>
		<g>
			<path d="M186.4,229.5c0.6,0,1.3-0.1,1.9-0.3c3.6-1.1,5.6-4.8,4.6-8.4c-8.7-29.6-37.8-52.2-72.4-56.1c-3.8-0.4-7,2.2-7.4,5.9
				c-0.4,3.7,2.2,7,5.9,7.5c29.3,3.3,53.8,22,61,46.5C180.8,227.6,183.4,229.5,186.4,229.5z"/>
		</g>
	</g>
</g>
<g>
	<g>
		<path d="M191,365.2c2.7,0,5.3-1,7.4-2.9c10-9.3,23.7-14.8,38.5-15.3c16.4-0.7,32,4.9,42.9,15.3c4.3,4.1,11.2,4,15.4-0.4
			c4.1-4.3,4-11.2-0.4-15.4c-15-14.4-36.5-22.1-58.7-21.2c-20,0.8-38.6,8.3-52.5,21.2c-4.4,4.1-4.6,11-0.5,15.4
			C185.2,364,188.1,365.2,191,365.2z"/>
	</g>
</g>
</svg>
