<?xml version="1.0" encoding="utf-8"?>
<!-- Generator: Adobe Illustrator 21.0.0, SVG Export Plug-In . SVG Version: 6.00 Build 0)  -->
<svg version="1.1" id="Layer_1" xmlns="http://www.w3.org/2000/svg" xmlns:xlink="http://www.w3.org/1999/xlink" x="0px" y="0px"
	 viewBox="0 0 476.8 476.9" style="enable-background:new 0 0 476.8 476.9;" xml:space="preserve">
<style type="text/css">
	.st0{fill:#FFCE00;}
	.st1{fill:#111111;}
	.st2{fill:#CC342F;}
</style>
<path class="st0" d="M238.4,470.9c-62.1,0-120.5-24.2-164.3-68.1S6,300.5,6,238.4C6,176.3,30.2,118,74.1,74.1S176.3,6,238.4,6
	c62.1,0,120.5,24.2,164.4,68.1c43.9,43.9,68.1,102.3,68.1,164.3c0,62.1-24.2,120.5-68.1,164.4C358.9,446.7,300.5,470.9,238.4,470.9"
	/>
<path d="M238.4,12c30.6,0,60.2,6,88.1,17.8c27,11.4,51.2,27.7,72,48.5c20.8,20.8,37.1,45,48.5,72c11.8,27.9,17.8,57.6,17.8,88.1
	c0,30.6-6,60.2-17.8,88.1c-11.4,27-27.7,51.2-48.5,72c-20.8,20.8-45,37.1-72,48.5c-27.9,11.8-57.6,17.8-88.1,17.8
	c-30.6,0-60.2-6-88.1-17.8c-27-11.4-51.2-27.7-72-48.5c-20.8-20.8-37.1-45-48.5-72C18,298.7,12,269,12,238.4
	c0-30.6,6-60.2,17.8-88.1c11.4-27,27.7-51.2,48.5-72c20.8-20.8,45-37.1,72-48.5C178.2,18,207.8,12,238.4,12 M238.4,0
	C106.7,0,0,106.7,0,238.4c0,131.7,106.7,238.4,238.4,238.4c131.7,0,238.4-106.7,238.4-238.4C476.8,106.7,370.1,0,238.4,0"/>
<path class="st1" d="M396,207.7c2.5,1.5,5.7-0.2,5.7-3.1v-0.1c0-17.4-14.1-31.5-31.5-31.5c-17.4,0-31.5,14.1-31.5,31.5v0.1
	c0,2.9,3.3,4.6,5.7,3.1c7.5-4.6,16.3-7.3,25.8-7.3C379.7,200.4,388.5,203.1,396,207.7"/>
<path class="st1" d="M132.3,207.7c2.5,1.5,5.7-0.2,5.7-3.1v-0.1c0-17.4-14.1-31.5-31.5-31.5c-17.4,0-31.5,14.1-31.5,31.5v0.1
	c0,2.9,3.3,4.6,5.7,3.1c7.5-4.6,16.3-7.3,25.8-7.3C116,200.4,124.8,203.1,132.3,207.7"/>
<path class="st1" d="M116.5,274.5c-7.6,2.6-12,10.9-9,18.4c17.8,44.9,69.8,82.8,130.9,82.8c61.1,0,113.1-37.9,130.9-82.8
	c2.9-7.5-1.4-15.8-9-18.4C286.7,249.6,190.1,249.6,116.5,274.5"/>
<path class="st2" d="M172.8,360.3c19.5,9.6,41.8,15.4,65.6,15.4c23.7,0,46-5.8,65.6-15.4c-18.1-13.6-40.8-21.8-65.6-21.8
	C213.7,338.5,190.9,346.7,172.8,360.3"/>
</svg>
